# xmcd CD database file
#
# Track frame offsets:
#	150
#	17897
#	31542
#	44717
#	60957
#	78517
#	89730
#	104967
#	117485
#	132560
#	146765
#
# Disc length: 2219 seconds
#
# Revision: 10
# Processed by: cddbd v1.5.2PL0 Copyright (c) Steve Scherf et al.
# Submitted via: CDex 1.70beta2
#
DISCID=a208a90b
DTITLE=Sammy Kershaw - Labor Of Love
DYEAR=1997
DGENRE=Country
TTITLE0=Honky Tonk America
TTITLE1=Shootin' The Bull (In An Old Cowtown)
TTITLE2=One Day Left To Live
TTITLE3=Cotton County Queen
TTITLE4=Matches
TTITLE5=Labor Of Love
TTITLE6=Thank God You're Gone
TTITLE7=Little Did I Know
TTITLE8=Arms Length Away
TTITLE9=Roamin' Love
TTITLE10=Love Of My Life
EXTD=YEAR: 1997
EXTT0=
EXTT1=
EXTT2=
EXTT3=
EXTT4=
EXTT5=
EXTT6=
EXTT7=
EXTT8=
EXTT9=
EXTT10=
PLAYORDER=
